<?xml version="1.0" encoding="UTF-8"?>
<svg id="Layer_1" xmlns="http://www.w3.org/2000/svg" version="1.1" viewBox="0 0 229.3 28.69">
  <!-- Generator: Adobe Illustrator 30.7.0, SVG Export Plug-In . SVG Version: 2.1.4 Build 114)  -->
  <path d="M35.16,20.57v8.01H14.29C6.49,28.58.15,22.33,0,14.57-.15,6.56,6.6,0,14.61,0h19.98v8.01h-18.14c-3.47,0-6.28,2.81-6.28,6.28s2.81,6.28,6.28,6.28h18.71Z"/>
  <path d="M52.97,20.57h-10.73L35.05,0h10.73l7.18,20.57ZM70.88,0l-9.98,28.58h-10.73L60.15,0h10.73Z"/>
  <path d="M101.24,12.5c4.44,0,8,3.6,8,8.04s-3.6,8.04-8.04,8.04h-29.74V0h29.83c3.14,0,5.68,2.54,5.68,5.68s-2.59,5.68-5.73,5.68v1.13ZM81.62,11.36h14.97c1.25,0,2.22-1.2,1.81-2.52-.25-.79-1.02-1.29-1.85-1.29h-14.93v3.81ZM97.18,17.22h-15.56v3.81h15.52c.83,0,1.6-.5,1.85-1.29.41-1.31-.56-2.52-1.81-2.52Z"/>
  <path d="M151.46,14.29c0,7.89-6.4,14.29-14.29,14.29h-13.38c-7.89,0-14.29-6.4-14.29-14.29S115.9,0,123.8,0h13.38c7.89,0,14.29,6.4,14.29,14.29ZM141.3,14.29c0-3.16-2.56-5.72-5.72-5.72h-10.2c-3.16,0-5.72,2.56-5.72,5.72s2.56,5.72,5.72,5.72h10.2c3.16,0,5.72-2.56,5.72-5.72Z"/>
  <path d="M193.17,10.39c0,4.6-3,8.5-7.14,9.86l7.14,8.33h-11.86l-7-7.81h-10.68v7.81h-10.16V0h29.32c5.74,0,10.39,4.65,10.39,10.39h0ZM183.01,10.74c0-1.51-1.22-2.73-2.73-2.73h-16.66v5.46h16.66c1.51,0,2.73-1.22,2.73-2.73Z"/>
  <path d="M219.14,12.45h10.16v16.24h-21.43c-7.8,0-14.14-6.25-14.29-14.01-.15-8.01,6.6-14.57,14.61-14.57h20.54v8.01h-18.71c-3.47,0-6.28,2.81-6.28,6.28s2.81,6.28,6.28,6.28h9.12v-8.23h0Z"/>
</svg>